<?xml version="1.0" encoding="UTF-8" standalone="no"?>
<svg
   xmlns="http://www.w3.org/2000/svg"
   version="1.1"
   viewBox="0 0 128 128"
   height="128"
   width="128">
  <g>
    <rect
       ry="16"
       rx="16"
       y="0"
       x="0"
       height="128"
       width="128"
       style="fill:#009688;fill-opacity:1" />
    <g
       style="fill:#ffffff"
       transform="translate(19.822754,0)">
      <path
         d="m 59.558105,85.284019 q 0,-4.528809 -4.528808,-7.092286 Q 50.585937,75.542808 40.673828,73.492026 7.6904297,66.57064 7.6904297,45.464683 q 0,-12.304688 10.1684573,-20.507813 10.253906,-8.288574 26.745605,-8.288574 17.602539,0 28.112793,8.288574 10.595703,8.288574 10.595703,21.533203 l -24.694824,0 q 0,-5.297851 -3.417969,-8.71582 -3.417968,-3.503418 -10.681152,-3.503418 -6.237793,0 -9.655762,2.819824 -3.417969,2.819824 -3.417969,7.177735 0,4.101562 3.845215,6.665039 3.930664,2.478027 13.15918,4.35791 9.228516,1.794433 15.551758,4.101562 19.567871,7.177735 19.567871,24.865723 0,12.646484 -10.852051,20.507812 -10.852051,7.77588 -28.027344,7.77588 -11.621093,0 -20.678711,-4.10156 Q 15.039063,104.25375 9.9121094,97.076011 4.7851562,89.812827 4.7851562,81.438804 l 23.4130858,0 q 0.341797,6.57959 4.870606,10.083008 4.528808,3.503418 12.133789,3.503418 7.092285,0 10.681152,-2.648926 3.674316,-2.734375 3.674316,-7.092285 z" />
    </g>
  </g>
</svg>
